# xmcd
#
# Track frame offsets: 
#        150
#        16015
#        29835
#        43790
#        57325
#        70465
#        82765
#        98805
#        115760
#        129180
#        142215
#
# Disc length: 2042 seconds
#
# Revision: 0
# Processed by: cddbd v1.5.2PL0 Copyright (c) Steve Scherf et al.
# Submitted via: ExactAudioCopyFreeDBPlugin 1.0
#
DISCID=9307f80b
DTITLE=町あかり - ア、町あかり
DYEAR=2015
DGENRE=Pop
TTITLE0=ア、アイシャドウ
TTITLE1=もぐらたたきのような人
TTITLE2=それ分かる！
TTITLE3=さっきも聞いたわその話
TTITLE4=No Problem（お安い御用）
TTITLE5=ちょっとここじゃあ言えません
TTITLE6=夢という小鳥
TTITLE7=横浜のすずめ
TTITLE8=コテンパン
TTITLE9=お悩み相談室
TTITLE10=神楽坂劇場のテーマ
EXTD=
EXTT0=
EXTT1=
EXTT2=
EXTT3=
EXTT4=
EXTT5=
EXTT6=
EXTT7=
EXTT8=
EXTT9=
EXTT10=
PLAYORDER=
